<svg width="49" height="48" viewBox="0 0 49 48" fill="none" xmlns="http://www.w3.org/2000/svg">
<path d="M43.029 8.61157L40.3164 8.58575C40.282 8.58575 36.0067 8.33056 34.2862 8.02949C30.5758 7.38147 27.6051 7.43872 24.4682 9.68113C21.2539 7.46459 19.0804 7.32699 14.8996 8.03803C14.5469 8.09822 14.2086 8.16133 13.8731 8.22449C12.6173 8.46528 8.99574 8.61162 8.99574 8.61162H6.29177C5.68382 8.61162 5.19067 9.10476 5.19067 9.71271V37.7989C5.19067 38.4069 5.68382 38.9 6.29177 38.9H20.018C19.9865 38.9975 19.9549 39.095 19.9549 39.2039C19.9549 39.7947 20.4538 40.2736 21.0761 40.2736H27.9263C28.5486 40.2736 29.0503 39.7947 29.0503 39.2039C29.0503 39.095 29.0188 38.9975 28.9844 38.9H43.029C43.6397 38.9 44.133 38.4069 44.133 37.7989V9.71266C44.133 9.10471 43.6397 8.61157 43.029 8.61157Z" fill="#27323A"/>
<path d="M7.39563 10.8165H8.83513V36.6978H7.39563V10.8165Z" fill="white"/>
<path d="M10.352 10.8252C11.9434 10.8165 13.1448 10.6044 14.2832 10.3893C14.6112 10.3248 14.94 10.2645 15.2696 10.2085C19.3987 9.50897 20.884 9.78998 23.6367 11.7915C23.6539 11.8029 23.6712 11.8086 23.6884 11.8173V35.158C20.1213 32.0296 16.9155 33.2712 12.8926 34.8541L10.352 35.9149C10.3462 31.5879 10.3462 15.7025 10.352 10.8252Z" fill="#79CCBF"/>
<path d="M13.4431 36.2017C17.5921 34.5702 20.0954 33.5895 23.2151 36.695C23.2151 36.695 23.218 36.6978 23.2208 36.6978H12.2531L13.4431 36.2017ZM25.7328 36.6978C25.7471 36.6863 25.7672 36.6776 25.7816 36.6634C28.6604 33.5265 31.3815 34.553 35.8749 36.2447L36.9817 36.6978H25.7328Z" fill="#F4CE73"/>
<path d="M38.8627 35.9005L36.4081 34.8912C32.0411 33.2455 28.5572 31.9435 25.1565 35.2325V11.8745C25.2224 11.8429 25.2913 11.8173 25.3514 11.7713C28.0497 9.6609 30.4411 9.59203 33.9078 10.2C35.2698 10.4379 37.6671 10.6444 38.8627 10.7361C38.8741 15.5793 38.8741 31.6282 38.8627 35.9005Z" fill="#79CCBF"/>
<path d="M40.328 10.8165H41.928V36.6978H40.328V10.8165Z" fill="white"/>
</svg>
