<svg width="40" height="40" viewBox="0 0 40 40" fill="none" xmlns="http://www.w3.org/2000/svg">
<path d="M38.2988 32.9512L30.535 3.9725C30.055 2.225 28.48 0.962499 26.6113 0.962499C26.2375 0.962499 25.875 1.0125 25.5313 1.1075L25.56 1.10125L21.94 2.07125C21.6525 2.1525 21.4038 2.2525 21.1675 2.375L21.19 2.365C20.4475 1.4925 19.35 0.939999 18.1238 0.936249H14.375C13.425 0.939999 12.5538 1.27375 11.8675 1.8275L11.875 1.82125C11.1963 1.27375 10.325 0.939999 9.37625 0.936249H5.625C3.3825 0.938749 1.565 2.75625 1.5625 4.99875V34.9987C1.565 37.2412 3.3825 39.0587 5.625 39.0612H9.375C10.325 39.0575 11.1962 38.725 11.8825 38.1712L11.875 38.1775C12.5538 38.725 13.425 39.0575 14.3738 39.0625H18.1225C20.365 39.06 22.1825 37.2425 22.185 35V18.6837L26.8313 36.025C27.3088 37.7725 28.8825 39.035 30.7513 39.035C31.1263 39.035 31.4888 38.9837 31.8338 38.8887L31.805 38.895L35.4275 37.9262C37.175 37.4437 38.4363 35.8687 38.4363 34C38.4363 33.6275 38.3863 33.2662 38.2925 32.9225L38.2988 32.9512ZM23.7825 12.5762L29.215 11.12L33.5825 27.4225L28.1513 28.8775L23.7825 12.5762ZM22.7488 5.09L26.3675 4.12125C26.4375 4.1025 26.5188 4.0925 26.6025 4.0925C27.035 4.0925 27.4013 4.38125 27.5163 4.77625L27.5175 4.7825L28.4075 8.1025L22.975 9.55875L22.185 6.6125V5.5525C22.3025 5.32875 22.5025 5.1625 22.7425 5.09H22.7488ZM14.375 4.0625H18.1225C18.6375 4.07 19.0525 4.485 19.06 4.99875V8.43625L13.4375 8.4375V5C13.445 4.485 13.86 4.07 14.3738 4.0625H14.375ZM10.3125 28.4375H4.6875V11.5625L10.3125 11.5612V28.4375ZM13.4375 11.5625L19.06 11.5612V28.4375H13.4375V11.5625ZM5.625 4.0625H9.375C9.89 4.07 10.305 4.485 10.3125 4.99875V8.43625L4.6875 8.4375V5C4.695 4.485 5.11125 4.07 5.625 4.0625ZM9.375 35.9375H5.625C5.11 35.93 4.695 35.515 4.6875 35.0012V31.5625H10.3125V35C10.305 35.515 9.88875 35.93 9.375 35.9375ZM18.1225 35.9375H14.375C13.86 35.93 13.445 35.515 13.4375 35.0012V31.5625H19.06V35C19.0525 35.515 18.6363 35.93 18.1225 35.9375ZM34.6163 34.91L30.9963 35.8787C30.925 35.8975 30.8438 35.9087 30.76 35.9087C30.5863 35.9087 30.4238 35.8625 30.2838 35.7812L30.2888 35.7837C30.075 35.66 29.9163 35.46 29.8513 35.2212L29.85 35.215L28.9613 31.8962L34.3925 30.4412L35.2825 33.7625C35.3013 33.8325 35.3113 33.9125 35.3113 33.995C35.3113 34.4287 35.0213 34.7937 34.625 34.9075L34.6188 34.9087L34.6163 34.91Z" fill="black"/>
</svg>
