<svg width="49" height="48" viewBox="0 0 49 48" fill="none" xmlns="http://www.w3.org/2000/svg">
<g clip-path="url(#clip0_110_661)">
<path d="M48.3333 14.9517V11.8212H41.1017V7.23159H36.512V0H33.3815V7.23159H29.4363V0H26.3058V7.23159H22.3607V0H19.2303V7.23159H15.285V0H12.1545V7.23159H7.56485V11.8212H0.333252V14.9517H7.56485V18.897H0.333252V22.0274H7.56485V25.9726H0.333252V29.103H7.56485V33.0483H0.333252V36.1788H7.56485V40.7684H12.1545V48H15.285V40.7684H19.2303V48H22.3607V40.7684H26.3058V48H29.4363V40.7684H33.3815V48H36.512V40.7684H41.1017V36.1788H48.3333V33.0483H41.1017V29.103H48.3333V25.9726H41.1017V22.0274H48.3333V18.897H41.1017V14.9517H48.3333Z" fill="#B5E45F"/>
<path d="M48.3331 14.9517V11.8212H41.1015V7.23159H36.5119V0H33.3814V7.23159H29.4361V0H26.3057V7.23159H24.3331V40.7684H26.3057V48H29.4361V40.7684H33.3814V48H36.5119V40.7684H41.1015V36.1788H48.3331V33.0483H41.1015V29.103H48.3331V25.9726H41.1015V22.0274H48.3331V18.897H41.1015V14.9517H48.3331Z" fill="#7DBB4E"/>
<path d="M37.9703 10.3617H10.6948V37.6371H37.9703V10.3617Z" fill="#7DBB4E"/>
<path d="M37.9715 10.3617H24.3333V37.6371H37.9715V10.3617Z" fill="#588D3F"/>
<path d="M32.4413 24.0068C33.0146 23.3996 33.3666 22.5814 33.3666 21.6805C33.3666 19.9187 32.0227 18.4719 30.3044 18.3067C30.3317 18.2119 30.3555 17.9718 30.3555 17.4206C30.3555 15.7575 29.0072 14.4094 27.3443 14.4094C25.6814 14.4094 24.3332 15.7576 24.3332 17.4206C24.3332 15.7575 22.9849 14.4094 21.322 14.4094C19.6591 14.4094 18.3108 15.7576 18.3108 17.4206C18.3108 17.9718 18.3347 18.2119 18.3619 18.3067C16.6435 18.4719 15.2997 19.9187 15.2997 21.6805C15.2997 22.5814 15.6517 23.3996 16.225 24.0068L16.2175 24C15.6482 24.6064 15.2997 25.4223 15.2997 26.3197C15.2997 28.1084 16.6851 29.5725 18.4412 29.7L18.441 29.701C18.3563 29.979 18.3107 30.274 18.3107 30.5796C18.3107 32.2426 19.659 33.5908 21.3219 33.5908C22.9848 33.5908 24.3331 32.2425 24.3331 30.5796C24.3331 32.2426 25.6813 33.5908 27.3442 33.5908C29.0072 33.5908 30.3554 32.2425 30.3554 30.5796C30.3554 30.274 30.3098 29.979 30.2252 29.701L30.225 29.7C31.981 29.5725 33.3664 28.1084 33.3664 26.3197C33.3664 25.4223 33.0178 24.6064 32.4486 24L32.4413 24.0068Z" fill="#EEBF70"/>
<path d="M32.4413 24.0068C33.0146 23.3996 33.3666 22.5814 33.3666 21.6805C33.3666 19.8916 31.9812 18.4263 30.2248 18.299C30.2248 18.299 30.3554 18.7114 30.3554 17.4205C30.3554 15.7574 29.0072 14.4093 27.3443 14.4093C25.6814 14.4093 24.3331 15.7575 24.3331 17.4205V30.5796C24.3331 32.2426 25.6814 33.5907 27.3443 33.5907C29.0073 33.5907 30.3554 32.2425 30.3554 30.5796C30.3554 30.274 30.3099 29.9789 30.2252 29.701L30.225 29.7C31.9811 29.5724 33.3665 28.1083 33.3665 26.3197C33.3665 25.4223 33.0178 24.6064 32.4487 23.9999L32.4413 24.0068Z" fill="#E79C25"/>
<path d="M34.9319 21.6805C34.9319 19.6523 33.6893 17.8793 31.9097 17.1193C31.7539 14.7359 29.7664 12.8442 27.3443 12.8442C26.192 12.8442 25.1387 13.2733 24.3332 13.9788C23.5277 13.2733 22.4745 12.8442 21.3222 12.8442C18.9001 12.8442 16.9126 14.7359 16.7567 17.1193C14.9772 17.8793 13.7346 19.6523 13.7346 21.6805C13.7346 22.5175 13.9441 23.3063 14.3119 23.9984C13.9357 24.7067 13.7346 25.5002 13.7346 26.3197C13.7346 28.3667 14.9822 30.1275 16.7568 30.8824C16.9134 33.265 18.9005 35.156 21.3222 35.156C22.4745 35.156 23.5279 34.727 24.3332 34.0214C25.1387 34.7269 26.192 35.156 27.3443 35.156C29.7659 35.156 31.753 33.2651 31.9097 30.8824C33.6843 30.1275 34.9319 28.3667 34.9319 26.3197C34.9319 25.5002 34.7307 24.7068 34.3546 23.9984C34.7224 23.3062 34.9319 22.5175 34.9319 21.6805ZM21.3222 32.0255C20.7103 32.0255 20.1872 31.6428 19.9764 31.1047C20.8873 30.8592 21.7202 30.3566 22.3641 29.6455L20.0438 27.5441C19.6931 27.9314 19.2123 28.1447 18.6904 28.1447C17.6839 28.1447 16.8652 27.3259 16.8652 26.3195C16.8652 26.3085 16.8665 26.2976 16.8668 26.2868C17.4317 26.5112 18.0467 26.636 18.6905 26.636V23.5056C17.684 23.5056 16.8653 22.6868 16.8653 21.6804C16.8653 21.0572 17.1845 20.5008 17.67 20.1705C18.1831 20.8529 18.8855 21.3948 19.7153 21.7061L20.8148 18.7751C20.2535 18.5646 19.8766 18.0202 19.8766 17.4205C19.8766 16.6231 20.5253 15.9746 21.3225 15.9746C22.1197 15.9746 22.7682 16.6233 22.7682 17.4205V30.5796C22.768 31.3769 22.1194 32.0255 21.3222 32.0255ZM27.3443 32.0255C26.547 32.0255 25.8985 31.3768 25.8985 30.5797V17.4205C25.8985 16.6231 26.5472 15.9746 27.3443 15.9746C28.1415 15.9746 28.7902 16.6232 28.7902 17.4205C28.7902 18.0203 28.4132 18.5647 27.852 18.7751L28.9515 21.7061C29.7812 21.3949 30.4837 20.853 30.9968 20.1705C31.4822 20.5008 31.8015 21.0572 31.8015 21.6804C31.8015 22.6868 30.9826 23.5056 29.9762 23.5056V26.636C30.6202 26.636 31.2351 26.5112 31.8001 26.2868C31.8002 26.2977 31.8017 26.3085 31.8017 26.3195C31.8017 27.3259 30.9828 28.1447 29.9764 28.1447C29.4545 28.1447 28.9739 27.9314 28.6231 27.5441L26.3027 29.6455C26.9467 30.3565 27.7796 30.8592 28.6905 31.1047C28.4794 31.6428 27.9562 32.0255 27.3443 32.0255Z" fill="#F3D49D"/>
<path d="M34.9319 21.6805C34.9319 19.6523 33.6893 17.8793 31.9098 17.1193C31.7539 14.7359 29.7664 12.8442 27.3443 12.8442C26.192 12.8442 25.1387 13.2733 24.3333 13.9788C24.3333 16.9103 24.3333 31.4807 24.3333 34.0215C25.1388 34.727 26.192 35.1561 27.3443 35.1561C29.7659 35.1561 31.753 33.2652 31.9097 30.8825C33.6843 30.1276 34.9319 28.3668 34.9319 26.3198C34.9319 25.5003 34.7307 24.7069 34.3546 23.9985C34.7224 23.3062 34.9319 22.5175 34.9319 21.6805ZM27.3443 32.0255C26.547 32.0255 25.8985 31.3768 25.8985 30.5797V17.4205C25.8985 16.6231 26.5472 15.9746 27.3443 15.9746C28.1415 15.9746 28.7902 16.6232 28.7902 17.4205C28.7902 18.0203 28.4133 18.5647 27.852 18.7751L28.9515 21.7061C29.7813 21.3949 30.4837 20.853 30.9968 20.1705C31.4823 20.5008 31.8015 21.0572 31.8015 21.6804C31.8015 22.6868 30.9827 23.5056 29.9763 23.5056V26.636C30.6202 26.636 31.2351 26.5112 31.8001 26.2868C31.8003 26.2977 31.8017 26.3085 31.8017 26.3195C31.8017 27.3259 30.9828 28.1447 29.9764 28.1447C29.4545 28.1447 28.9739 27.9314 28.6231 27.5441L26.3028 29.6455C26.9467 30.3565 27.7796 30.8592 28.6905 31.1047C28.4794 31.6428 27.9562 32.0255 27.3443 32.0255Z" fill="#EEBF70"/>
</g>
<defs>
<clipPath id="clip0_110_661">
<rect width="48" height="48" fill="white" transform="translate(0.333252)"/>
</clipPath>
</defs>
</svg>
