<svg width="48" height="48" viewBox="0 0 48 48" fill="none" xmlns="http://www.w3.org/2000/svg">
<g clip-path="url(#clip0_110_620)">
<path d="M1 19H47V47H1V19Z" fill="#9FDBAD"/>
<path d="M45 20C45.2652 20 45.5196 20.1054 45.7071 20.2929C45.8946 20.4804 46 20.7348 46 21V45C46 45.2652 45.8946 45.5196 45.7071 45.7071C45.5196 45.8946 45.2652 46 45 46H3C2.73478 46 2.48043 45.8946 2.29289 45.7071C2.10536 45.5196 2 45.2652 2 45V21C2 20.7348 2.10536 20.4804 2.29289 20.2929C2.48043 20.1054 2.73478 20 3 20H45ZM45 18H3C2.20435 18 1.44129 18.3161 0.87868 18.8787C0.31607 19.4413 0 20.2044 0 21L0 45C0 45.7956 0.31607 46.5587 0.87868 47.1213C1.44129 47.6839 2.20435 48 3 48H45C45.7956 48 46.5587 47.6839 47.1213 47.1213C47.6839 46.5587 48 45.7956 48 45V21C48 20.2044 47.6839 19.4413 47.1213 18.8787C46.5587 18.3161 45.7956 18 45 18Z" fill="#5C2D51"/>
<path d="M3.14002 19.08C2.97514 19.0788 2.81525 19.0233 2.6851 18.922C2.55495 18.8208 2.46178 18.6795 2.42002 18.52L1.00002 13.2C0.97447 13.1041 0.968202 13.0041 0.981574 12.9058C0.994947 12.8075 1.02769 12.7128 1.07792 12.6272C1.12815 12.5417 1.19485 12.4669 1.27417 12.4073C1.35349 12.3477 1.44385 12.3044 1.54002 12.28L44.61 1H44.8C44.9649 1.00122 45.1248 1.05674 45.2549 1.15797C45.3851 1.25919 45.4782 1.40049 45.52 1.56L46.91 6.88C46.9356 6.97587 46.9418 7.07587 46.9285 7.17418C46.9151 7.2725 46.8823 7.36718 46.8321 7.45275C46.7819 7.53832 46.7152 7.61307 46.6359 7.67268C46.5565 7.73229 46.4662 7.77556 46.37 7.8L3.33002 19.06L3.14002 19.08Z" fill="white"/>
<path d="M44.62 2.06001L45.89 6.90001L3.32 18L2.06 13.19L44.62 2.06001ZM44.8 1.10416e-05C44.6514 0.00124567 44.5035 0.021408 44.36 0.060011L1.31 11.32C0.862315 11.4376 0.479436 11.7277 0.245165 12.1269C0.0108949 12.5261 -0.0556845 13.0018 0.0599997 13.45L1.45 18.77C1.57185 19.214 1.86376 19.5921 2.26247 19.8223C2.66117 20.0526 3.13455 20.1164 3.58 20L46.64 8.76001C46.8628 8.70186 47.0718 8.60032 47.2553 8.46123C47.4388 8.32213 47.593 8.1482 47.7091 7.9494C47.8252 7.75061 47.901 7.53085 47.932 7.30273C47.963 7.07461 47.9488 6.84261 47.89 6.62001L46.5 1.31001C46.4023 0.933902 46.1822 0.601009 45.8744 0.363818C45.5666 0.126627 45.1886 -0.00136887 44.8 1.10416e-05Z" fill="#5C2D51"/>
<path d="M8.32001 10.52L12.02 9.55005L12.45 16.67L8.75001 17.64L8.32001 10.52Z" fill="#F05071"/>
<path d="M11.1 10.82L11.4 15.91L9.66997 16.36L9.36997 11.27L11.1 10.82ZM12.95 8.27002L7.27997 9.76002L7.81997 18.92L13.49 17.44L12.95 8.28002V8.27002Z" fill="#5C2D51"/>
<path d="M17.34 8.16006L21.04 7.19006L21.46 14.3201L17.76 15.2801L17.34 8.16006Z" fill="#F05071"/>
<path d="M20.11 8.47004L20.41 13.56L18.69 14L18.39 8.91004L20.12 8.46004M22 5.92004L16.29 7.40004L16.83 16.56L22.5 15.08L22 5.92004Z" fill="#5C2D51"/>
<path d="M26.35 5.79996L30.05 4.82996L30.48 11.96L26.77 12.93L26.35 5.79996Z" fill="#F05071"/>
<path d="M29.13 6.11006L29.43 11.2001L27.7 11.6501L27.4 6.56006L29.13 6.11006ZM31 3.56006L25.31 5.00006L25.85 14.1601L31.52 12.6801L31 3.56006Z" fill="#5C2D51"/>
<path d="M35.37 3.43998L39.06 2.47998L39.49 9.59998L35.79 10.57L35.37 3.43998Z" fill="#F05071"/>
<path d="M38.14 3.74995L38.44 8.83995L36.71 9.28995L36.41 4.19995L38.14 3.74995ZM40 1.19995L34.32 2.67995L34.86 11.8399L40.53 10.3599L40 1.19995Z" fill="#5C2D51"/>
<path d="M20.11 39.4701C19.5796 39.4701 19.0708 39.2593 18.6958 38.8843C18.3207 38.5092 18.11 38.0005 18.11 37.4701V28.5701C18.11 28.0396 18.3207 27.5309 18.6958 27.1559C19.0708 26.7808 19.5796 26.5701 20.11 26.5701C20.4612 26.5707 20.8061 26.6638 21.11 26.8401L28.89 31.2901C29.2026 31.463 29.4632 31.7166 29.6446 32.0243C29.826 32.3321 29.9217 32.6828 29.9217 33.0401C29.9217 33.3973 29.826 33.7481 29.6446 34.0558C29.4632 34.3636 29.2026 34.6171 28.89 34.7901L21.11 39.2001C20.8061 39.3763 20.4612 39.4694 20.11 39.4701Z" fill="#FDCA89"/>
<path d="M20.11 27.5301C20.2861 27.5319 20.4586 27.5802 20.61 27.6701L28.39 32.1201C28.5512 32.2049 28.6862 32.3322 28.7804 32.4881C28.8746 32.6441 28.9244 32.8229 28.9244 33.0051C28.9244 33.1873 28.8746 33.366 28.7804 33.522C28.6862 33.6779 28.5512 33.8052 28.39 33.8901L20.61 38.3401C20.4586 38.4299 20.2861 38.4782 20.11 38.4801C19.8448 38.4801 19.5904 38.3747 19.4029 38.1872C19.2153 37.9996 19.11 37.7453 19.11 37.4801V28.5801C19.11 28.3148 19.2153 28.0605 19.4029 27.873C19.5904 27.6854 19.8448 27.5801 20.11 27.5801M20.11 25.5801C19.3143 25.5801 18.5513 25.8961 17.9887 26.4587C17.4261 27.0213 17.11 27.7844 17.11 28.5801V37.4801C17.104 38.0115 17.2393 38.5349 17.5021 38.9969C17.7648 39.4588 18.1455 39.8427 18.6053 40.1092C19.0651 40.3757 19.5875 40.5153 20.1189 40.5137C20.6503 40.5121 21.1718 40.3694 21.63 40.1001L29.41 35.6501C29.8765 35.3899 30.265 35.0098 30.5355 34.5492C30.806 34.0887 30.9486 33.5642 30.9486 33.0301C30.9486 32.4959 30.806 31.9715 30.5355 31.5109C30.265 31.0503 29.8765 30.6703 29.41 30.4101L21.63 25.9601C21.1767 25.6991 20.663 25.5612 20.14 25.5601L20.11 25.5801Z" fill="#5C2D51"/>
</g>
<defs>
<clipPath id="clip0_110_620">
<rect width="48" height="48" fill="white"/>
</clipPath>
</defs>
</svg>
